<svg id="Layer_2" data-name="Layer 2" xmlns="http://www.w3.org/2000/svg" viewBox="0 0 39.11 8.01"><defs><style>.cls-1{fill:#fff;}</style></defs><title>alliancePost</title><path class="cls-1" d="M-692.65,112a1.52,1.52,0,0,0,1.52-1.52h-3A1.52,1.52,0,0,0-692.65,112Z" transform="translate(695.89 -104.03)"/><path class="cls-1" d="M-695.89,110.52h1.73a1.52,1.52,0,0,1,1.51-1.52,1.52,1.52,0,0,1,1.52,1.52h1.73l-3.25-6.49Z" transform="translate(695.89 -104.03)"/><path class="cls-1" d="M-686.9,106.05l-1,4.47h.47l.27-1.25h1.2l.27,1.25h.47l-1-4.47Zm-.18,2.81.51-2.35.51,2.35Z" transform="translate(695.89 -104.03)"/><polygon class="cls-1" points="11.71 2.02 11.24 2.02 11.24 6.49 13.07 6.49 13.07 6.08 11.71 6.08 11.71 2.02"/><polygon class="cls-1" points="14.03 2.02 13.56 2.02 13.56 6.49 15.39 6.49 15.39 6.08 14.03 6.08 14.03 2.02"/><rect class="cls-1" x="15.88" y="2.02" width="0.47" height="4.47"/><path class="cls-1" d="M-678,106.05l-1,4.47h.47l.28-1.25H-677l.28,1.25h.47l-1-4.47Zm-.18,2.81.51-2.35.51,2.35Z" transform="translate(695.89 -104.03)"/><path class="cls-1" d="M-673.78,108.29l0,1.47c-.25-.68-.73-1.92-1.44-3.71h-.54v4.47h.46v-2.24l0-1.46c.31.83.49,1.29.52,1.39l.92,2.31h.55v-4.47h-.48Z" transform="translate(695.89 -104.03)"/><path class="cls-1" d="M-671.82,110a.47.47,0,0,1-.16-.39V107a.48.48,0,0,1,.16-.4.87.87,0,0,1,.55-.14,3.13,3.13,0,0,1,.79.11v-.44a3,3,0,0,0-.78-.1c-.79,0-1.19.31-1.19.94v2.65c0,.63.4.94,1.19.94a2.62,2.62,0,0,0,.79-.1V110a2.77,2.77,0,0,1-.78.11A.91.91,0,0,1-671.82,110Z" transform="translate(695.89 -104.03)"/><polygon class="cls-1" points="26.13 6.49 28.06 6.49 28.06 6.07 26.6 6.07 26.6 4.45 27.88 4.45 27.88 4.03 26.6 4.03 26.6 2.44 28.06 2.44 28.06 2.02 26.13 2.02 26.13 6.49"/><path class="cls-1" d="M-666,106.05h-1.09v4.47h.48V109h.61a1.09,1.09,0,0,0,.8-.27A1,1,0,0,0-665,108v-.92a1,1,0,0,0-.27-.74A1.11,1.11,0,0,0-666,106.05Zm.6,1.91q0,.6-.63.6h-.58v-2.09h.58c.42,0,.63.2.63.61Z" transform="translate(695.89 -104.03)"/><path class="cls-1" d="M-663.15,106a1.1,1.1,0,0,0-.84.3,1,1,0,0,0-.28.76v2.5a1.05,1.05,0,0,0,.28.76,1.14,1.14,0,0,0,.84.29,1.14,1.14,0,0,0,.84-.29,1.06,1.06,0,0,0,.29-.76V107a1,1,0,0,0-.29-.76A1.1,1.1,0,0,0-663.15,106Zm.66,3.54c0,.43-.22.64-.66.64a.57.57,0,0,1-.65-.64v-2.47a.57.57,0,0,1,.65-.63q.66,0,.66.63Z" transform="translate(695.89 -104.03)"/><path class="cls-1" d="M-659.8,108.35l-.77-.44a.86.86,0,0,1-.3-.25.65.65,0,0,1-.09-.37V107c0-.35.22-.52.68-.52a2.64,2.64,0,0,1,.85.12v-.45a3.35,3.35,0,0,0-.9-.11,1.22,1.22,0,0,0-.82.25.85.85,0,0,0-.29.69v.39a1,1,0,0,0,.58.93l.76.42a.72.72,0,0,1,.29.24.66.66,0,0,1,.08.34v.28c0,.37-.27.55-.79.55a2.48,2.48,0,0,1-.89-.14v.45a2.65,2.65,0,0,0,.94.13,1.4,1.4,0,0,0,.9-.25.89.89,0,0,0,.31-.71v-.36A.94.94,0,0,0-659.8,108.35Z" transform="translate(695.89 -104.03)"/><polygon class="cls-1" points="36.9 2.02 36.9 2.44 37.77 2.44 37.77 6.49 38.25 6.49 38.25 2.44 39.11 2.44 39.11 2.02 36.9 2.02"/></svg>